<?xml version="1.0" encoding="UTF-8" standalone="no"?>
<!-- Created with Inkscape (http://www.inkscape.org/) -->

<svg
   width="37.120537mm"
   height="37.120544mm"
   viewBox="0 0 37.120537 37.120544"
   version="1.1"
   id="svg599"
   xml:space="preserve"
   xmlns="http://www.w3.org/2000/svg"
   xmlns:svg="http://www.w3.org/2000/svg"><defs
     id="defs596"><clipPath
       clipPathUnits="userSpaceOnUse"
       id="clipPath2504"><path
         id="path2506"
         style="fill:#ff0000;fill-opacity:1;fill-rule:nonzero;stroke:none;stroke-width:0.264583"
         d="m 37.659901,105.3046 v 30.6157 h 14.712281 v -13.19247 c -0.05753,0.10196 -0.118478,0.20199 -0.186037,0.29765 -0.09663,0.13567 -0.204737,0.26298 -0.295587,0.40256 -0.02553,0.0396 -0.07165,0.11011 -0.08992,0.13901 0.0077,-0.077 -0.04435,0.19099 -0.04702,0.19999 -0.0051,0.0173 -0.01053,0.0345 -0.01603,0.0517 -0.04726,0.14161 -0.08955,0.28459 -0.14366,0.42374 -0.109953,0.24162 -0.248547,0.48589 -0.481624,0.62787 -0.165211,0.0917 -0.34209,0.15463 -0.51108,0.23823 -0.13499,0.0726 -0.262011,0.15677 -0.388091,0.24288 -0.01738,0.0266 -0.03676,0.0535 -0.05891,0.0806 -0.138721,0.16986 -0.291309,0.32647 -0.455271,0.47181 -0.145108,0.13133 -0.308319,0.23798 -0.481108,0.32866 -0.07014,0.0359 -0.172358,0.0633 -0.2682,0.0584 0.009,0.08 0.02535,0.18379 0.06459,0.31936 -0.07846,0.0395 -0.157747,0.074 -0.239778,0.10542 -0.159782,0.0715 -0.319363,0.14428 -0.486791,0.19688 -0.03593,0.0122 -0.07196,0.0241 -0.108006,0.0362 0.02574,0.11406 0.05355,0.22774 0.0739,0.34261 0.161335,-2.3e-4 0.322514,0.003 0.483174,0.004 0.08899,0.003 0.465842,-0.009 0.485243,0.1359 0.01527,0.11439 -0.03743,0.22488 -0.101803,0.32867 0.530188,-0.005 1.060418,-0.007 1.590601,0.004 0.360135,0.005 0.722929,7.9e-4 1.082622,0.0222 0.09843,0.006 0.249835,-0.0621 0.294555,0.0258 0.278072,0.54637 0.142817,0.53871 -0.09198,0.58291 -0.664782,0.0213 -1.329978,0.0386 -1.99471,0.0615 -0.874855,0.0294 -1.749464,0.0598 -2.624129,0.0956 -0.0057,0.003 -0.01334,0.005 -0.0217,0.005 0.207542,0.007 0.415092,0.0135 0.622699,0.0186 0.267074,-0.027 0.535049,-0.043 0.803053,-0.0574 0.01061,0.0648 0.159488,-0.0521 0.180867,0.004 0.06606,0.1742 0.133178,0.35739 0.128675,0.54364 -0.0013,0.0516 -0.09233,0.0499 -0.143143,0.0589 -0.127979,0.0221 -0.405878,0.0295 -0.596863,0.0346 0.03296,0.15085 0.04337,0.17481 -0.05064,0.19121 2.49e-4,2.7e-4 2.1e-4,8e-4 5.3e-4,0.001 0.01085,-0.002 0.0217,-0.005 0.03256,-0.007 0.0047,-0.001 0.01926,-0.003 0.01447,-0.003 -0.01447,8e-4 -0.03854,0.0168 -0.04703,0.0103 -0.02805,0.006 -0.0561,0.0128 -0.08423,0.0186 -0.239456,0.0519 -0.479629,0.10061 -0.723985,0.12351 -0.173122,0.0188 -0.346139,0.0374 -0.519351,0.0553 5.29e-4,0.0215 5.29e-4,0.0431 0.0011,0.0646 0.157816,-0.002 0.315507,-0.003 0.473358,-0.005 0.05651,0.001 0.132196,-0.0397 0.169497,0.003 0.0068,0.008 0.01103,0.0132 0.01757,0.0207 0.02829,-0.006 0.02713,-0.006 0.0011,0.001 0.382656,0.43806 0.377875,0.50793 0.0832,0.57257 0.308279,0.003 0.616233,0.007 0.924494,0.0109 0.17046,0.003 0.341172,0.004 0.511596,0.009 0.07684,0.002 0.186507,-0.0512 0.230475,0.0119 0.0069,0.01 0.01201,0.0183 0.0186,0.0279 0.10002,-0.009 0.153561,0.0118 0.106968,0.16278 0.06572,0.10756 0.102957,0.18766 0.116274,0.24649 0.421997,1.5e-4 0.843222,0.008 1.26297,0.0398 0.03235,0.008 0.10486,-0.009 0.09715,0.0233 -0.03217,0.13472 -0.06844,0.27487 -0.128675,0.40048 -0.01651,0.1594 -0.172048,0.1421 -0.01394,0.15503 -0.02545,-0.002 -0.05098,-0.003 -0.07648,-0.005 -0.0067,0.009 -0.01349,0.0173 -0.02066,0.0259 -0.05596,0.066 -0.172212,0.008 -0.258381,0.008 -0.603734,-0.001 -1.208069,-0.0275 -1.811258,-0.0496 -0.137494,-0.005 -0.274902,-0.0113 -0.41238,-0.017 -0.136932,-1.5e-4 -0.273904,-1e-4 -0.410826,-5.3e-4 -0.192961,7.9e-4 -0.385784,0.002 -0.578776,0.003 -0.0021,0.005 -0.004,0.0107 -0.0062,0.016 0.02061,0.006 0.02117,0.009 -0.0036,0.007 -0.0061,0.009 -0.02037,0.004 -0.03514,-0.002 -0.01894,-0.001 -0.03682,-0.002 -0.05478,-0.002 -5.3e-4,0.005 -0.0016,0.0106 -0.0021,0.016 0.0013,0.003 0.0038,0.007 0.0052,0.0103 0.07375,0.005 0.153538,0.0171 0.14418,0.0455 -0.01543,0.0468 -0.03283,0.0937 -0.05219,0.14004 0.04112,0.0967 0.0226,0.11271 -0.05013,0.10904 -0.0063,0.0125 -0.01344,0.0244 -0.02016,0.0367 0.02785,0.002 0.05588,0.004 0.08372,0.006 -0.0065,0.0302 -0.01111,0.0616 -0.01498,0.093 v 5.3e-4 c 5.29e-4,2.4e-4 0.0016,7.9e-4 0.0021,0.001 0.0477,0.0267 0.07339,0.0604 0.07545,0.1049 v 5.3e-4 c 0.07694,0.12598 0.03205,0.15236 -0.04444,0.13901 -0.01995,0.0358 -0.04718,0.0758 -0.08062,0.1204 -0.0037,0.0135 -0.0083,0.0267 -0.01291,0.0398 0.007,0.027 0.01413,0.0533 0.02326,0.0791 -0.01913,-0.002 -0.0377,-0.003 -0.05684,-0.004 -0.0064,0.0113 -0.01408,0.0223 -0.0217,0.0331 -0.0034,0.005 -0.007,0.009 -0.01085,0.0129 0.233032,-0.007 0.466079,-0.0131 0.69918,-0.0155 0.02852,-0.009 0.05622,-0.0155 0.07441,-0.007 0.05505,-0.0123 0.118441,-0.0353 0.128159,0.008 0.03364,0.15066 0.03394,0.31477 -0.0031,0.46664 5.29e-4,0.0375 -6.3e-5,0.0752 -0.0036,0.11214 -0.0021,0.0211 -0.01908,0.0249 -0.04238,0.0222 -0.03539,0.0421 -0.133655,-0.002 -0.196371,5.3e-4 -0.167717,0.007 -0.335442,0.0129 -0.503328,0.017 0.08205,0.0376 0.09492,0.12739 0.0026,0.36587 0.562261,-0.0241 1.124606,-0.0445 1.687235,-0.0584 0.216474,-0.005 0.432165,-0.0103 0.647504,-0.0103 0.05134,-0.007 0.101248,-0.008 0.148828,0.002 0.152265,0.001 0.304504,0.004 0.457338,0.0103 -0.05669,0.10394 -0.09246,0.22685 -0.139528,0.33952 0.03518,0.0821 0.06903,0.16598 0.113688,0.23823 -0.08685,-0.004 -0.173328,-0.007 -0.259932,-0.009 -0.01363,0.0125 -0.02824,0.0246 -0.04392,0.0351 -0.166494,0.11299 -0.401492,0.0199 -0.602549,0.0279 -0.298447,0.0113 -0.597016,0.0189 -0.895551,0.0279 -0.07993,0.002 -0.159848,0.005 -0.239779,0.007 -0.0026,0.0764 -0.0059,0.15255 -0.02016,0.22531 0.0042,0.0445 0.0096,0.0886 0.01757,0.13177 -0.01961,-5.3e-4 -0.0393,-0.001 -0.05891,-0.002 -0.0019,0.004 -0.0037,0.008 -0.0057,0.0119 -0.03264,0.0648 -0.145346,0.006 -0.218074,0.008 -0.33772,0.008 -0.675633,0.0115 -1.013376,0.0129 -0.147423,0.009 -0.295029,0.0197 -0.442349,0.0305 0.0214,0.11678 0.05345,0.23256 0.07493,0.34933 0.04565,-0.009 0.08981,-0.0152 0.101804,0.0202 0.03666,0.10812 0.03625,0.22312 0.03152,0.339 0.02532,-0.002 0.05011,-0.004 0.07545,-0.005 v 0.002 c 0.574612,-0.037 0.617511,0.54343 0.04289,0.58033 -0.613958,0.0394 -1.225132,0.10903 -1.836063,0.17983 -0.357335,0.0408 -0.714071,0.0859 -1.071769,0.12351 -0.05182,0.002 -0.316201,0.0419 -0.349332,0.0134 -0.09219,-0.0794 -0.168063,-0.17565 -0.252182,-0.26355 0.0056,-0.0548 -0.0097,-0.11593 0.01654,-0.16433 0.03976,-0.0735 0.09026,-0.13253 0.147278,-0.18138 -0.04442,2.7e-4 -0.08943,8e-4 -0.133842,0.001 -0.02949,2.2e-4 -0.05887,2.6e-4 -0.08837,5.3e-4 -0.133273,0.0101 -0.266686,0.021 -0.399975,0.0227 -0.01773,0.004 -0.03346,0.005 -0.04496,-5.3e-4 -0.05815,-2.6e-4 -0.116097,-0.002 -0.174152,-0.007 0.03292,-0.15205 0.03898,-0.31311 0.08113,-0.46198 -0.0038,-0.0397 -0.0082,-0.0794 -0.01447,-0.11834 0.01886,7.9e-4 0.03796,7.9e-4 0.05684,0.001 0.0011,-0.002 0.0021,-0.004 0.0031,-0.006 0.02342,-0.048 0.106667,-0.004 0.160197,-0.005 0.07615,-0.001 0.152247,-5.3e-4 0.22841,-0.002 0.02911,-0.002 0.05823,-0.004 0.08733,-0.006 -0.02003,-0.0572 -0.03542,-0.13617 -0.04858,-0.24753 -0.01013,-0.0858 0.104775,-0.14059 0.175186,-0.19069 0.01177,-0.008 0.02807,-0.0165 0.04651,-0.0248 -0.05082,-5.3e-4 -0.101624,-0.001 -0.152445,-0.002 -0.10015,-0.006 -0.201004,-0.006 -0.301273,-0.0129 -0.241121,0.0338 -0.482272,0.0771 -0.72502,0.0646 0.04172,-0.145 0.0489,-0.30735 0.09405,-0.45062 -0.01595,-0.0462 -0.03331,-0.0912 -0.05426,-0.13333 0.03818,0.005 0.07583,0.004 0.11317,5.3e-4 0.0081,-0.0131 0.01683,-0.0267 0.02635,-0.0393 0.06266,-0.082 0.192653,-0.0582 0.302307,-0.062 0.0084,-0.005 0.01423,-0.009 0.02326,-0.0155 0.03544,-0.0109 0.0712,-0.0211 0.106971,-0.0305 0.0077,-0.0667 0.02757,-0.11765 0.05684,-0.15658 -0.161229,-0.0465 -0.290388,-0.14424 -0.206705,-0.3607 0.01577,-0.0408 0.03807,-0.0743 0.06563,-0.10232 7.93e-4,-0.0176 0.0019,-0.0356 0.0031,-0.0548 0.0021,-0.0293 0.01487,-0.0542 0.0341,-0.076 -0.0164,-0.0137 -0.02633,-0.0297 -0.02585,-0.0491 0.0036,-0.14961 0.06323,-0.29392 0.131257,-0.42943 -0.09138,-0.002 -0.18252,-0.004 -0.273886,-0.006 0.0666,-0.0713 -0.240683,0.0413 -0.207737,-0.0202 0.04792,-0.0892 0.09236,-0.18514 0.14211,-0.27699 -0.07223,-0.15019 -0.08742,-0.21065 -0.04496,-0.26768 -0.0071,-0.0112 -0.01439,-0.0228 -0.0217,-0.0336 -0.0096,-0.0141 0.01598,-0.007 0.04703,0.004 0.03292,-0.0323 0.08159,-0.0689 0.146243,-0.12558 0.113747,-0.0338 0.226698,-0.0713 0.341067,-0.10283 -0.04287,-0.062 -0.08285,-0.11977 -0.114208,-0.16692 -0.353665,0.0385 -0.707263,0.0783 -1.059365,0.12919 -0.04261,0.007 -0.102468,0.057 -0.128159,0.0222 -0.0024,-0.003 -0.0038,-0.006 -0.0062,-0.009 -0.09877,0.03 -0.122989,0.0168 -0.116271,-0.15814 -0.265671,-0.36346 -0.222843,-0.34639 0.05064,-0.43201 0.237268,-0.0658 0.481086,-0.10362 0.722953,-0.14831 h 0.0011 c 0.007,-0.0558 0.02611,-0.1093 0.05013,-0.16175 -0.01839,-0.0157 -0.03547,-0.0335 -0.05064,-0.0548 -0.04094,-0.0575 -0.08095,-0.13366 -0.06356,-0.20206 0.02357,-0.0926 0.09739,-0.16274 0.157096,-0.23926 0.01252,-0.0691 0.05299,-0.14197 0.128156,-0.21342 -0.144174,-1e-5 -0.288356,1e-5 -0.43253,0 -0.115396,-1e-5 -0.230836,1e-5 -0.346234,0 -0.199707,0 -0.07072,0.004 -0.07596,-0.49506 -0.01389,-0.0312 -0.02087,-0.0505 -0.02066,-0.0636 -0.07057,-0.08 -0.07964,-0.19101 -0.01963,-0.28681 -0.168643,-0.0516 -0.348382,-0.1482 -0.11317,-0.47387 0.109252,-0.15119 0.355658,-0.11677 0.537951,-0.15658 0.09954,-0.0217 0.200522,-0.0353 0.301791,-0.0475 -0.178559,0.003 -0.357306,0.006 -0.535887,0.007 -0.106452,-0.004 -0.211156,2.6e-4 -0.315224,0.0227 -0.05296,-0.004 -0.145002,0.0402 -0.159163,-0.0108 -0.0312,-0.11277 -0.03409,-0.23136 -0.02479,-0.34986 -0.04029,0.005 -0.08062,0.01 -0.120926,0.0145 -0.571822,0.0675 -0.640045,-0.51024 -0.06821,-0.57774 0.06413,-0.008 0.128143,-0.016 0.192239,-0.0238 -0.01455,-0.13588 -0.01987,-0.27299 -0.01654,-0.4098 h -0.0026 v -0.002 c -0.517848,0 -0.569672,-0.47014 -0.156062,-0.56483 0.01064,-0.0648 0.03693,-0.16986 0.06253,-0.3576 0.0021,-0.0161 0.04045,-0.0313 0.08992,-0.045 -0.07547,-0.054 -0.137459,-0.12651 -0.11989,-0.20257 0.02262,-0.0979 0.08904,-0.17895 0.143661,-0.26458 -0.03187,-0.009 -0.06384,-0.0181 -0.0956,-0.0274 -0.101264,-0.033 -0.203846,-0.0645 -0.300758,-0.10904 -0.194746,-0.11677 -0.103975,-0.0439 0.09922,-0.55862 0.0089,-0.0223 0.04805,-0.007 0.07234,-0.007 0.05593,-2e-4 0.111942,0.003 0.167949,0.006 0.04801,-0.0446 0.102005,-0.0851 0.14676,-0.13178 -0.0095,-0.002 -0.01894,-0.004 -0.02842,-0.007 -0.140025,-0.0316 -0.274833,-0.0795 -0.405659,-0.13797 -0.01035,0.009 -0.103405,-0.0682 -0.145727,-0.1049 -5.3e-4,-2.6e-4 -7.94e-4,-7.9e-4 -0.0016,-10e-4 -7.94e-4,-5.2e-4 -0.0019,-7.9e-4 -0.0021,-0.001 -0.432749,-0.17777 -0.348998,-0.57478 -0.0217,-0.5886 0.07553,-0.003 0.163883,0.0139 0.261998,0.0589 0.02633,0.0121 0.0524,0.0249 0.077,0.0403 0.0083,0.005 0.131829,0.0868 0.07028,0.0651 0.09928,0.0449 0.201292,0.0806 0.307991,0.10387 0.248494,0.0622 0.500483,0.10685 0.754477,0.14005 0.229749,0.0261 0.459682,0.0279 0.690912,0.0269 0.310224,0.004 0.62003,0.01 0.930177,0.0176 0.436645,0.0105 0.873562,0.0198 1.309997,-0.004 0.40539,-0.0173 0.810641,-0.0424 1.215949,-0.0615 0.379605,-0.0236 0.758946,-0.0545 1.134295,-0.11834 0.212304,-0.0357 0.42649,-0.0665 0.627353,-0.14728 0.01482,-0.004 0.166333,-0.0546 0.173633,-0.0439 0.263639,0.38587 0.40726,0.40146 0.185002,0.55345 -0.09325,0.06 -0.193222,0.10395 -0.294039,0.14935 -0.114356,0.0549 -0.228748,0.10961 -0.346231,0.15761 -0.01421,0.006 -0.02863,0.0111 -0.04289,0.0165 0.104423,-0.011 0.208622,-0.0233 0.312645,-0.0377 0.108532,-0.0134 0.216937,-0.0261 0.326078,-0.0331 0.02117,-0.002 0.04235,-0.002 0.06356,-0.003 0.01262,-10e-4 0.03272,-0.0137 0.03772,-0.002 0.01561,0.0358 0.03032,0.0721 0.04444,0.10852 0.08476,-0.0702 0.16723,-0.14278 0.245462,-0.22014 0.0038,-0.005 0.0075,-0.01 0.01138,-0.015 0.04952,-0.0684 0.08877,-0.10855 0.134358,-0.13746 0.119804,-0.13157 0.232246,-0.27014 0.338482,-0.4129 0.232378,-0.31236 0.5096,-0.31919 0.637688,-0.16691 0.132374,-0.13949 0.260599,-0.28271 0.387572,-0.42737 0.219954,-0.27538 0.438716,-0.55205 0.654225,-0.83095 0.148685,-0.18417 0.270086,-0.38576 0.376721,-0.59635 0.06962,-0.17205 0.100262,-0.35492 0.127641,-0.53744 0.04331,-0.28874 0.190857,-0.43724 0.340029,-0.46302 0.01228,-0.023 0.02487,-0.0455 0.03772,-0.0682 0.01135,-0.02 0.01233,-0.061 0.03256,-0.0636 0.0013,-1.7e-4 0.0029,-1.9e-4 0.0047,0 0.128442,0.0137 0.254587,0.0423 0.380341,0.0729 v -15.6957 z M 52.0306,122.50097 c -0.0016,0.004 -0.0029,0.007 -0.0047,0.0103 0.0113,0.008 0.02416,0.0168 0.02687,0.017 -1.72e-4,-5.3e-4 -5.3e-4,-0.002 -0.0016,-0.003 -0.0066,-0.008 -0.01392,-0.0161 -0.02066,-0.0243 z m -3.779097,1.51722 c -0.01103,0.005 -0.02516,0.01 -0.02687,0.0176 0.0069,-0.004 0.01392,-0.008 0.02066,-0.0129 0.0021,-0.002 0.0028,-0.002 0.0062,-0.005 z m -7.061068,0.86919 c 0.0013,5.3e-4 0.0097,0.004 0.01498,0.006 -0.0019,-10e-4 -0.0026,-0.002 -0.0047,-0.003 -0.0087,-0.003 -0.01273,-0.004 -0.01035,-0.003 z m 7.441922,1.05627 c -0.03173,0.009 -0.06391,0.0144 -0.09612,0.016 0.04213,0.0477 0.07751,0.0894 0.100769,0.12609 0.01405,-0.002 0.02828,-0.004 0.04237,-0.006 -0.01884,-0.0438 -0.03365,-0.0899 -0.04702,-0.13591 z" /></clipPath></defs><g
     id="layer1"
     transform="translate(-95.757181,-119.47398)"><circle
       style="fill:#b3b3b3;fill-opacity:1;stroke:#000000;stroke-width:2;stroke-linecap:round;stroke-dasharray:none;stroke-opacity:1;paint-order:markers stroke fill"
       id="path2567"
       cx="114.31744"
       cy="138.03424"
       r="17.560265" /><ellipse
       style="fill:#ffffff;fill-opacity:1;stroke:none;stroke-width:5.7791;stroke-linecap:round;stroke-dasharray:none;stroke-opacity:1;paint-order:markers stroke fill"
       id="path2727"
       cx="114.19494"
       cy="136.03804"
       rx="5.7376537"
       ry="5.9032717" /><g
       id="g2513"
       transform="translate(97.365613,14.408056)"><path
         style="fill:#ffff00;stroke:#ffff00;stroke-width:1.03093;stroke-linecap:round;paint-order:markers stroke fill"
         d="m 14.097418,128.17484 c 0,0 -5.7825297,-2.51921 -2.928813,-8.54252 0,0 2.553325,-5.74184 2.853715,-6.51587 0.300392,-0.77403 1.762296,1.24509 1.762296,1.24509 l 1.46691,-3.00425 c 0,0 5.857627,7.7403 6.007822,10.27348 0.150196,2.53319 -2.252933,6.2626 -4.355671,6.4737 -2.102738,0.2111 -0.0751,-2.18135 -0.0751,-2.18135 0,0 3.454499,-2.58957 0.901174,-6.2908 l -1.426862,2.35028 -3.079008,-4.85527 c 0,0 -4.806259,6.40333 -0.450587,9.14761 4.355671,2.74429 1.952541,2.60356 -0.675881,1.8999 z"
         id="path896" /><path
         style="fill:#ffad00;fill-opacity:1;stroke:#ffad00;stroke-width:1;stroke-linecap:round;stroke-opacity:1;paint-order:markers stroke fill"
         d="m 17.251526,111.35729 c 0,0 10.031504,9.62678 2.534738,16.12988 0,0 4.442309,-0.83213 3.314104,-8.41927 0,0 -2.599329,-6.66986 -4.724359,-9.33582"
         id="path952" /><path
         style="fill:#420000;fill-opacity:1;stroke:none;stroke-width:1;stroke-linecap:round;paint-order:markers stroke fill"
         d="m 42.791026,122.68205 c 0,0 2.25641,-3.38461 4.160257,0 0,0 0.282051,11.77564 -2.044872,12.69231 -2.326923,0.91667 -2.256411,-11.49359 -2.115385,-12.69231 z"
         id="path2168"
         clip-path="url(#clipPath2360)"
         transform="translate(-28.093553,2.4901429)" /><path
         style="fill:#8b2900;fill-opacity:1;stroke:none;stroke-width:1;stroke-linecap:round;paint-order:markers stroke fill"
         d="m 42.791026,122.68205 c 0,0 2.25641,-3.38461 4.160257,0 0,0 0.282051,11.77564 -2.044872,12.69231 -2.326923,0.91667 -2.256411,-11.49359 -2.115385,-12.69231 z"
         id="path2460"
         clip-path="url(#clipPath2504)"
         transform="translate(-28.064103,2.53846)" /><path
         style="fill:none;stroke:#000000;stroke-width:1;stroke-linecap:round;paint-order:markers stroke fill"
         d="m 12.752565,127.54743 c 0,0 -5.5000007,-4.37179 -0.705128,-10.85897 2.156023,-2.91697 1.76282,-3.59615 2.044871,-4.3718 0.54979,-1.51194 1.589821,2.38222 1.692308,2.04488 0.45309,-1.49138 2.397435,-4.3718 2.397435,-4.9359 0,-1.82911 10.294872,14.66667 3.032052,18.19231 m -6.48718,-2.39744 c 0,0 2.25641,-3.38461 4.160257,0 0,0 0.282051,11.77564 -2.044872,12.69231 -2.326923,0.91667 -2.256411,-11.49359 -2.115385,-12.69231 z"
         id="path786" /></g></g></svg>
