<?xml version="1.0" encoding="UTF-8" standalone="no"?>
<!-- Created with Inkscape (http://www.inkscape.org/) -->

<svg
   width="36.120529mm"
   height="36.120544mm"
   viewBox="0 0 36.120529 36.120544"
   version="1.1"
   id="svg599"
   xml:space="preserve"
   xmlns="http://www.w3.org/2000/svg"
   xmlns:svg="http://www.w3.org/2000/svg"><defs
     id="defs596" /><g
     id="layer1"
     transform="translate(-97.472109,-183.3702)"><circle
       style="fill:none;fill-opacity:1;stroke:#000000;stroke-width:1;stroke-linecap:round;stroke-dasharray:none;stroke-opacity:1;paint-order:markers stroke fill"
       id="circle3685"
       cx="115.53237"
       cy="201.43047"
       r="17.560265" /><path
       style="fill:none;stroke:#000000;stroke-width:1.03093;stroke-linecap:round;paint-order:markers stroke fill"
       d="m 117.40912,203.7274 c 0,0 3.4545,-2.58957 0.90118,-6.2908 l -1.42687,2.35028 -3.079,-4.85527 c 0,0 -4.80626,6.40333 -0.45059,9.14761 0.0509,-1.35588 3.28347,0.76412 4.05528,-0.35182 z"
       id="path3689" /><path
       style="fill:#000000;fill-opacity:1;stroke:none;stroke-width:1;stroke-linecap:round;paint-order:markers stroke fill"
       d="m 113.27802,202.97647 c 0,0 2.25641,-3.3846 4.16026,0 0,0 0.28205,11.77564 -2.04488,12.69232 -2.32692,0.91667 -2.25641,-11.4936 -2.11538,-12.69232 z"
       id="path3693"
       clip-path="url(#clipPath2360)" /><path
       style="fill:none;stroke:#000000;stroke-width:1;stroke-linecap:round;paint-order:markers stroke fill"
       d="m 111.33311,205.35171 c 0,0 -5.5,-4.37179 -0.70513,-10.85897 2.15603,-2.91697 1.76282,-3.59615 2.04487,-4.3718 0.54979,-1.51194 1.58983,2.38222 1.69231,2.04488 0.45309,-1.49138 2.39744,-4.3718 2.39744,-4.9359 0,-1.82911 10.29487,14.66667 3.03205,18.19231 m -6.48718,-2.39744 c 0,0 2.25641,-3.38461 4.16026,0 0,0 0.28205,11.77564 -2.04488,12.69231 -2.32692,0.91667 -2.25641,-11.49359 -2.11538,-12.69231 z"
       id="path3697" /></g></svg>
